# xmcd
#
# Track frame offsets:
#	150
#	19288
#	29503
#	44468
#	61918
#	77191
#	95014
#	112159
#	128014
#	146144
#	165899
#	180124
#	197836
#	213791
#	231953
#	251123
#	270158
#	285613
#	300333
#
# Disc length: 4247 seconds
#
# Revision: 4
# Processed by: cddbd v1.5.2PL0 Copyright (c) Steve Scherf et al.
# Submitted via: audiograbber 1.83.01
#
DISCID=05109513
DTITLE=MMC303 Music Meastro  - Disk 3 (MM)
DYEAR=2004
DGENRE=Karaoke
TTITLE0=George Strait - Run (MM)
TTITLE1=Steve Wariner and Garth Brooks - Burnin' The Roadhouse Down (MM)
TTITLE2=Faith Hill - This Kiss (MM)
TTITLE3=Kenny Rogers - Buy Me A Rose (MM)
TTITLE4=Mark McGuinn - Mrs. Steven Rudy (MM)
TTITLE5=Shania Twain - That Don't Impress Me Much (MM)
TTITLE6=Ty Herndon - Steam (MM)
TTITLE7=SheDaisy - Little Goodbyes (MM)
TTITLE8=Phil Vassar - Carlene (MM)
TTITLE9=Faith Hill - Let Me Let Go (MM)
TTITLE10=Trace Adkins - I'm Gonna Love You Anyway (MM)
TTITLE11=Shania Twain - Man! I Feel Like A Woman (MM)
TTITLE12=Jo Dee Messina - Bye Bye (MM)
TTITLE13=Mark Chestnutt - I Don't Want To Miss A Thing (MM)
TTITLE14=Faith Hill - Breathe (MM)
TTITLE15=Travis Tritt - It's A Great Day To Be Alive (MM)
TTITLE16=Brooks and Dunn - Ain't Nothing 'Bout You (MM)
TTITLE17=Lee Greenwood - God Bless The USA (MM)
TTITLE18=Tim McGraw - Grown Men Don't Cry (MM)
EXTD=
EXTT0=
EXTT1=
EXTT2=
EXTT3=
EXTT4=
EXTT5=
EXTT6=
EXTT7=
EXTT8=
EXTT9=
EXTT10=
EXTT11=
EXTT12=
EXTT13=
EXTT14=
EXTT15=
EXTT16=
EXTT17=
EXTT18=
PLAYORDER=
